# xmcd
#
# Track frame offsets: 
#        150
#        28090
#        61225
#        93175
#        108775
#        128950
#        159750
#        191600
#        222138
#        246450
#        266425
#        288513
#        304750
#
# Disc length: 4358 seconds
#
# Revision: 0
# Processed by: cddbd v1.5.2PL0 Copyright (c) Steve Scherf et al.
# Submitted via: ExactAudioCopy v0.95a5
#
DISCID=b011040d
DTITLE=Various Artist - Best Of Cafe Aperitivo -Sommo-
DYEAR=2007
DGENRE=Electronica/Dance
TTITLE0=Monsieur Blumenberg - L'Altra Sera Al Ristorante (Free Tempo 8
TTITLE0=0's Samba mix)
TTITLE1=Cloudberry Jam - Thinking Of You (Elmio remix)
TTITLE2=i-dep - Rustlica (Free Tempo Longe mix) Feat. Elen Nas
TTITLE3=Kaleido - Tem Que Valer
TTITLE4=DJ Rodriguez - Vibes and Tribes (DJ Rodriguez Remix)
TTITLE5=M-SWIFT - Fantasy Feat. Vanessa Haynes
TTITLE6=Funkestra - Un Bom Motivo
TTITLE7=LTJ X-Perience - When The Rain Begins To Fall (Live Drum) Feat
TTITLE7=Joe Bataan
TTITLE8=DJ Rodriguez - Peter Pan's Syndrome
TTITLE9=12 Fingers - Estrela Feat. Viviane Cruz
TTITLE10=Riovolt - Rio
TTITLE11=Ohm Guru - Please Please Please, Let Me Get What I Want
TTITLE12=Kaleido With Elmio - Saudade De Voce (Elmio's Love Acoustic F
TTITLE12=or Aperitivo)
EXTD=
EXTT0=
EXTT1=
EXTT2=
EXTT3=
EXTT4=
EXTT5=
EXTT6=
EXTT7=
EXTT8=
EXTT9=
EXTT10=
EXTT11=
EXTT12=
PLAYORDER=
